<?xml version="1.0" encoding="UTF-8"?>
<svg width="450px" height="450px" viewBox="0 0 450 450" version="1.1" xmlns="http://www.w3.org/2000/svg" xmlns:xlink="http://www.w3.org/1999/xlink">
    <title>info</title>
    <g id="Page-1" stroke="none" stroke-width="1" fill="none" fill-rule="evenodd">
        <g id="info" fill="#000000" fill-rule="nonzero">
            <g id="Group">
                <circle id="Oval" cx="225" cy="133.5" r="31.25"></circle>
                <path d="M251,219.12 L251,322.12 C251,336.479403 239.359403,348.12 225,348.12 C210.640597,348.12 199,336.479403 199,322.12 L199,219.12 C199,204.760597 210.640597,193.12 225,193.12 C239.359403,193.12 251,204.760597 251,219.12 L251,219.12 Z" id="Path"></path>
                <path d="M225,0 C100.74,0 0,100.74 0,225 C0,349.26 100.74,450 225,450 C349.26,450 450,349.26 450,225 C450,100.74 349.26,0 225,0 Z M355.81,355.81 C309.211079,403.210371 240.764894,421.968088 176.511217,404.946937 C112.257539,387.925785 62.0742148,337.742461 45.0530633,273.488783 C28.0319118,209.235106 46.7896288,140.788921 94.19,94.19 C140.788921,46.7896288 209.235106,28.0319118 273.488783,45.0530633 C337.742461,62.0742148 387.925785,112.257539 404.946937,176.511217 C421.968088,240.764894 403.210371,309.211079 355.81,355.81 Z" id="Shape"></path>
                <path d="M225,0 C100.74,0 0,100.74 0,225 C0,349.26 100.74,450 225,450 C349.26,450 450,349.26 450,225 C450,100.74 349.26,0 225,0 Z M355.81,355.81 C309.211079,403.210371 240.764894,421.968088 176.511217,404.946937 C112.257539,387.925785 62.0742148,337.742461 45.0530633,273.488783 C28.0319118,209.235106 46.7896288,140.788921 94.19,94.19 C140.788921,46.7896288 209.235106,28.0319118 273.488783,45.0530633 C337.742461,62.0742148 387.925785,112.257539 404.946937,176.511217 C421.968088,240.764894 403.210371,309.211079 355.81,355.81 Z" id="Shape"></path>
            </g>
        </g>
    </g>
</svg>